name C:/MyDriveSym/Projects/mobilecap/Data\Session20210819_0001\mocap\ForceDataProcessed\DJ1_forces.mot
datacolumns 28
datarows 6
range 2.01700000 2.01950000
endheader 
time	R_ground_force_vx	R_ground_force_vy	R_ground_force_vz	R_ground_force_px	R_ground_force_py	R_ground_force_pz	R_ground_torque_x	R_ground_torque_y	R_ground_torque_z	L_ground_force_vx	L_ground_force_vy	L_ground_force_vz	L_ground_force_px	L_ground_force_py	L_ground_force_pz	L_ground_torque_x	L_ground_torque_y	L_ground_torque_z	3_ground_force_vx	3_ground_force_vy	3_ground_force_vz	3_ground_force_px	3_ground_force_py	3_ground_force_pz	3_ground_torque_x	3_ground_torque_y	3_ground_torque_z	
          2.01700000	        -32.64610700	        442.12719000	        -86.05016100	         -0.12537400	          0.00600000	         -0.40722700	          0.00000000	         -0.76428400	          0.00000000	        -40.15810700	        493.63876500	         84.86104900	         -0.08914300	          0.00600000	         -0.75051700	          0.00000000	         -1.51424800	          0.00000000	          0.00000000	          0.00000000	          0.00000000	          0.00000000	          0.00000000	          0.00000000	          0.00000000	          0.00000000	          0.00000000	
          2.01750000	        -32.84476000	        442.40753800	        -86.05733300	         -0.12532000	          0.00600000	         -0.40722400	          0.00000000	         -0.77283500	          0.00000000	        -40.06172800	        494.02418400	         84.82169300	         -0.08910900	          0.00600000	         -0.75053900	          0.00000000	         -1.50889200	          0.00000000	          0.00000000	          0.00000000	          0.00000000	          0.00000000	          0.00000000	          0.00000000	          0.00000000	          0.00000000	          0.00000000	
          2.01800000	        -33.04103900	        442.69501700	        -86.06624000	         -0.12526700	          0.00600000	         -0.40722000	          0.00000000	         -0.78130100	          0.00000000	        -39.96620100	        494.41115100	         84.78169700	         -0.08907500	          0.00600000	         -0.75056000	          0.00000000	         -1.50325500	          0.00000000	          0.00000000	          0.00000000	          0.00000000	          0.00000000	          0.00000000	          0.00000000	          0.00000000	          0.00000000	          0.00000000	
          2.01850000	        -33.23474000	        442.98980100	        -86.07698900	         -0.12521400	          0.00600000	         -0.40721500	          0.00000000	         -0.78967600	          0.00000000	        -39.87181400	        494.79955100	         84.74107100	         -0.08904100	          0.00600000	         -0.75058200	          0.00000000	         -1.49733700	          0.00000000	          0.00000000	          0.00000000	          0.00000000	          0.00000000	          0.00000000	          0.00000000	          0.00000000	          0.00000000	          0.00000000	
          2.01900000	        -33.42566000	        443.29205400	        -86.08966000	         -0.12516300	          0.00600000	         -0.40720900	          0.00000000	         -0.79795500	          0.00000000	        -39.77884700	        495.18926100	         84.69981400	         -0.08900600	          0.00600000	         -0.75060300	          0.00000000	         -1.49114000	          0.00000000	          0.00000000	          0.00000000	          0.00000000	          0.00000000	          0.00000000	          0.00000000	          0.00000000	          0.00000000	          0.00000000	
          2.01950000	        -33.61360400	        443.60193400	        -86.10430100	         -0.12511200	          0.00600000	         -0.40720200	          0.00000000	         -0.80613300	          0.00000000	        -39.68758200	        495.58013800	         84.65790600	         -0.08897000	          0.00600000	         -0.75062500	          0.00000000	         -1.48466900	          0.00000000	          0.00000000	          0.00000000	          0.00000000	          0.00000000	          0.00000000	          0.00000000	          0.00000000	          0.00000000	          0.00000000	
